<svg width="115" height="115" viewBox="0 0 115 115" fill="none" xmlns="http://www.w3.org/2000/svg">
<path d="M21.2103 97.7536L13.1351 7.1875H101.865L93.7789 97.7392L57.4461 107.812L21.2103 97.7536Z" fill="#E44F26"/>
<path d="M57.5 100.115L86.8609 91.9749L93.7681 14.5942H57.5V100.115Z" fill="#F1662A"/>
<path d="M57.5 48.1814H42.8016L41.7881 36.8072H57.5V25.6989H29.6484L29.9144 28.6817L32.642 59.2897H57.5V48.1814ZM57.5 77.0284L57.4497 77.0428L45.08 73.7042L44.2894 64.8456H33.138L34.6941 82.2825L57.4497 88.6003L57.5 88.5859V77.0284Z" fill="#EBEBEB"/>
<path d="M57.4604 48.1814V59.2897H71.1383L69.8517 73.697L57.4604 77.0392V88.5967L80.234 82.2825L80.3994 80.4066L83.0084 51.1642L83.2815 48.1814H57.4604ZM57.4604 25.6989V36.8072H84.2914L84.5142 34.3131L85.0209 28.6817L85.2869 25.6989H57.4604Z" fill="white"/>
</svg>
