<svg width="115" height="115" viewBox="0 0 115 115" fill="none" xmlns="http://www.w3.org/2000/svg">
<path d="M21.2104 97.7536L13.1388 7.1875H101.861L93.779 97.7392L57.4461 107.812L21.2104 97.7536Z" fill="#1572B6"/>
<path d="M57.5 100.115L86.8609 91.9749L93.7681 14.5942H57.5V100.115Z" fill="#33A9DC"/>
<path d="M57.5 47.4052H72.1984L73.2119 36.0309H57.5V24.9227H85.3516L85.0856 27.9019L82.358 58.5134H57.5V47.4052Z" fill="white"/>
<path d="M57.5683 76.2522L57.518 76.2666L45.1483 72.9244L44.3577 64.0658H33.2063L34.7624 81.5063L57.5144 87.8241L57.5683 87.8097V76.2522Z" fill="#EBEBEB"/>
<path d="M71.2532 58.0427L69.9163 72.9172L57.5287 76.2594V87.8169L80.2987 81.5063L80.4676 79.6303L82.3974 58.0427H71.2532Z" fill="white"/>
<path d="M57.5395 24.9227V36.0309H30.7086L30.4858 33.5333L29.9791 27.9019L29.7131 24.9227H57.5395ZM57.5 47.4052V58.5134H45.2849L45.062 56.0158L44.5589 50.3844L44.293 47.4052H57.5Z" fill="#EBEBEB"/>
</svg>
