<svg width="115" height="115" viewBox="0 0 115 115" fill="none" xmlns="http://www.w3.org/2000/svg">
<path d="M7.35522 7.1875H107.98V107.812H7.35522V7.1875Z" fill="#F5DE19"/>
<path d="M74.9501 85.8008C75.8075 87.5423 77.1395 89.0061 78.7927 90.0234C80.4458 91.0408 82.3528 91.5702 84.2939 91.5508C88.211 91.5508 90.7159 89.5922 90.7159 86.8789C90.7159 83.6445 88.1428 82.4873 83.8303 80.6006L81.4656 79.5872C74.6375 76.6798 70.1093 73.0394 70.1093 65.3416C70.1093 58.2511 75.5 52.8497 83.956 52.8497C86.6934 52.652 89.4284 53.2647 91.8199 54.6112C94.2113 55.9578 96.1534 57.9786 97.4039 60.4217L90.0115 65.1475C89.53 63.9361 88.6917 62.8997 87.6076 62.1758C86.5236 61.4518 85.2451 61.0744 83.9417 61.0938C83.373 61.0368 82.7987 61.099 82.2554 61.2763C81.7121 61.4535 81.2116 61.7421 80.786 62.1234C80.3603 62.5048 80.0188 62.9707 79.7831 63.4913C79.5474 64.012 79.4228 64.576 79.4171 65.1475C79.4171 67.983 81.1745 69.133 85.2318 70.8975L87.5965 71.9109C95.6321 75.3573 100.175 78.8684 100.175 86.7639C100.175 95.2775 93.4867 99.9422 84.5059 99.9422C81.0067 100.165 77.5177 99.3707 74.46 97.6547C71.4023 95.9387 68.9065 93.3744 67.2739 90.2714L74.9501 85.8008ZM41.5462 86.6202C43.0304 89.2544 44.3817 91.4825 47.6304 91.4825C50.7354 91.4825 52.6976 90.2678 52.6976 85.542V53.3888H62.1528V85.6678C62.1528 95.4572 56.4028 99.9134 48.0329 99.9134C45.0744 100.075 42.1361 99.3379 39.6044 97.7984C37.0728 96.259 35.0662 93.9896 33.8484 91.2884L41.5462 86.6202Z" fill="black"/>
</svg>
