<svg width="115" height="115" viewBox="0 0 115 115" fill="none" xmlns="http://www.w3.org/2000/svg">
<g clip-path="url(#clip0_14_41)">
<path d="M112.33 52.4957L62.3431 2.51038C59.4661 -0.368451 54.7971 -0.368451 51.9165 2.51038L41.5364 12.8906L54.704 26.0585C57.764 25.0245 61.2729 25.7181 63.712 28.1573C66.1628 30.6122 66.8516 34.1511 65.7925 37.2209L78.4825 49.9116C81.5527 48.8539 85.0952 49.5382 87.5473 51.9944C90.9744 55.4201 90.9744 60.9725 87.5473 64.4006C84.1193 67.829 78.567 67.829 75.1373 64.4006C72.5595 61.82 71.9226 58.0342 73.2276 54.8584L61.3932 43.0238L61.3918 74.1677C62.2497 74.5919 63.0333 75.1522 63.712 75.8269C67.1391 79.2527 67.1391 84.8055 63.712 88.2362C60.2841 91.6629 54.7291 91.6629 51.306 88.2362C47.879 84.8055 47.879 79.2531 51.306 75.8273C52.1273 75.0056 53.1033 74.3549 54.1777 73.9127V42.4786C53.1018 42.0394 52.1252 41.3883 51.306 40.564C48.7094 37.9709 48.0851 34.161 49.4156 30.9727L36.4354 17.9909L2.16009 52.2645C-0.720031 55.146 -0.720031 59.8155 2.16009 62.6948L52.1482 112.681C55.026 115.56 59.6942 115.56 62.5756 112.681L112.33 62.9269C115.209 60.0468 115.209 55.3745 112.33 52.4957" fill="#DE4C36"/>
</g>
<defs>
<clipPath id="clip0_14_41">
<rect width="115" height="115" fill="white"/>
</clipPath>
</defs>
</svg>
