<svg width="115" height="115" viewBox="0 0 115 115" fill="none" xmlns="http://www.w3.org/2000/svg">
<path d="M104.352 18.0766L83.6309 8.10032C82.4607 7.5361 81.1439 7.3499 79.8631 7.56755C78.5824 7.7852 77.401 8.3959 76.4829 9.31501L8.65087 71.1563C7.82787 71.9031 7.33522 72.9462 7.28131 74.0562C7.22739 75.1662 7.61662 76.2522 8.36337 77.0752C8.45321 77.1722 8.54306 77.2656 8.64009 77.3519L14.1781 82.3831C14.9017 83.0418 15.8332 83.4261 16.8107 83.4694C17.7882 83.5128 18.7501 83.2123 19.5292 82.6203L101.233 20.6641C101.85 20.1958 102.586 19.909 103.357 19.8361C104.128 19.7632 104.905 19.9071 105.599 20.2514C106.293 20.5958 106.877 21.127 107.285 21.7853C107.693 22.4436 107.91 23.2028 107.91 23.9775V23.7367C107.91 22.554 107.576 21.3954 106.947 20.3941C106.317 19.3927 105.418 18.5894 104.352 18.0766Z" fill="#0065A9"/>
<path d="M104.352 96.9234L83.6309 106.903C82.4603 107.466 81.144 107.651 79.8635 107.434C78.5832 107.216 77.4019 106.606 76.4829 105.689L8.65087 43.8437C7.82787 43.097 7.33522 42.0538 7.28131 40.9438C7.22739 39.8338 7.61662 38.7479 8.36337 37.9248C8.45321 37.8278 8.54306 37.7344 8.64009 37.6481L14.1781 32.6169C14.9024 31.9555 15.8361 31.5694 16.816 31.5261C17.7959 31.4827 18.76 31.7848 19.5399 32.3797L101.233 94.3359C101.85 94.8042 102.586 95.091 103.357 95.1639C104.128 95.2368 104.905 95.093 105.599 94.7486C106.293 94.4042 106.877 93.873 107.285 93.2147C107.693 92.5564 107.91 91.7972 107.91 91.0225V91.2812C107.906 92.4608 107.571 93.6155 106.942 94.6132C106.312 95.611 105.415 96.4116 104.352 96.9234Z" fill="#007ACC"/>
<path d="M83.6308 106.903C82.4603 107.466 81.1439 107.651 79.8635 107.434C78.5831 107.216 77.4019 106.606 76.4829 105.689C76.999 106.198 77.6539 106.544 78.3656 106.682C79.0773 106.821 79.8141 106.747 80.4837 106.469C81.1533 106.19 81.7259 105.721 82.1298 105.118C82.5336 104.516 82.7508 103.808 82.754 103.083V11.9169C82.7546 11.1884 82.5389 10.4761 82.1344 9.87025C81.7299 9.2644 81.1546 8.79226 80.4815 8.51363C79.8084 8.235 79.0677 8.16241 78.3533 8.30507C77.6389 8.44773 76.983 8.79921 76.4685 9.31499C77.3868 8.39622 78.5679 7.78547 79.8484 7.56722C81.129 7.34897 82.4457 7.53399 83.6165 8.09671L104.334 18.0586C105.404 18.5689 106.307 19.3711 106.939 20.3726C107.572 21.3741 107.909 22.5341 107.91 23.7187V91.2812C107.911 92.4649 107.576 93.6246 106.946 94.6267C106.316 95.6287 105.416 96.4324 104.349 96.945L83.6308 106.903Z" fill="#1F9CF0"/>
</svg>
