<svg width="113" height="101" viewBox="0 0 113 101" fill="none" xmlns="http://www.w3.org/2000/svg">
<g clip-path="url(#clip0_14_43)">
<path d="M92.854 32.9345C91.6555 32.5214 90.4468 32.1387 89.2291 31.7868C89.4336 30.9471 89.6219 30.1176 89.7891 29.3026C92.5333 15.9199 90.7393 5.13859 84.6116 1.58886C78.7364 -1.81415 69.128 1.73426 59.4241 10.2184C58.4677 11.056 57.5326 11.9178 56.6195 12.8029C56.0083 12.2143 55.3863 11.6372 54.7538 11.0718C44.5836 2.00031 34.3896 -1.82299 28.2685 1.73691C22.3986 5.15052 20.6604 15.2857 23.131 27.9688C23.3768 29.2249 23.6544 30.4746 23.9634 31.7165C22.5204 32.1284 21.1281 32.5668 19.7955 33.0335C7.87176 37.2099 0.25708 43.7548 0.25708 50.5435C0.25708 57.5551 8.43179 64.5878 20.8509 68.8522C21.8577 69.1965 22.873 69.5155 23.8956 69.809C23.5635 71.1466 23.2686 72.4933 23.0114 73.8475C20.656 86.3105 22.4953 96.2062 28.3494 99.5981C34.3958 103.101 44.544 99.5009 54.4252 90.8232C55.2264 90.1177 56.01 89.3923 56.7753 88.6475C57.764 89.6059 58.7792 90.5364 59.8196 91.438C69.3915 99.7121 78.8446 103.053 84.693 99.652C90.7336 96.139 92.697 85.5084 90.1481 72.5747C89.9473 71.5615 89.7221 70.5532 89.4728 69.5509C90.1855 69.3388 90.8849 69.1204 91.5668 68.8933C104.478 64.5962 112.878 57.6488 112.878 50.5435C112.878 43.73 105.018 37.141 92.854 32.9345ZM90.0539 64.3058C89.438 64.5105 88.8063 64.708 88.1622 64.9003C86.7369 60.3672 84.8135 55.5473 82.4595 50.567C84.7057 45.7055 86.5552 40.9471 87.9405 36.4436C89.0927 36.7786 90.2105 37.1317 91.2884 37.5043C101.71 41.1088 108.067 46.4374 108.067 50.5435C108.067 54.9171 101.202 60.5948 90.0539 64.3058ZM85.4285 73.5134C86.5556 79.2322 86.7162 84.403 85.9696 88.4455C85.2992 92.0779 83.9504 94.4994 82.2822 95.4694C78.7333 97.5333 71.1432 94.8507 62.9575 87.7742C61.9899 86.936 61.0456 86.0709 60.1257 85.18C63.2994 81.6934 66.4708 77.6403 69.5661 73.1386C75.0106 72.6534 80.1543 71.8596 84.8188 70.7764C85.0435 71.6838 85.2468 72.5964 85.4285 73.5134ZM38.6521 95.1128C35.1846 96.3427 32.4227 96.3781 30.7532 95.4111C27.2008 93.3529 25.724 85.4071 27.7384 74.7491C27.9778 73.4897 28.252 72.2371 28.5606 70.993C33.1737 72.0183 38.2799 72.7555 43.7372 73.2001C46.8536 77.605 50.1165 81.6537 53.405 85.199C52.7061 85.8783 51.9908 86.5403 51.2595 87.1842C46.8897 91.0212 42.5111 93.7436 38.6521 95.1128ZM22.4074 64.2789C16.9158 62.3931 12.3806 59.9425 9.27205 57.2682C6.47852 54.8654 5.06855 52.4793 5.06855 50.5435C5.06855 46.4237 11.1822 41.1689 21.3793 37.5975C22.6168 37.1644 23.9119 36.7556 25.2559 36.372C26.6654 40.9771 28.514 45.7922 30.7448 50.6611C28.4849 55.6021 26.61 60.494 25.1868 65.1535C24.2533 64.8849 23.3266 64.5933 22.4074 64.2789ZM27.8528 27.0403C25.7363 16.1741 27.1418 7.97723 30.6793 5.91996C34.4468 3.72877 42.7781 6.85291 51.5595 14.686C52.1321 15.198 52.6955 15.7203 53.2493 16.2527C49.9771 19.7826 46.7441 23.8012 43.6554 28.18C38.3586 28.6733 33.2885 29.4652 28.627 30.5264C28.3398 29.3712 28.0817 28.2089 27.8528 27.0407V27.0403ZM76.4325 39.0913C75.3315 37.1807 74.1896 35.2942 73.0077 33.4331C76.601 33.8896 80.0438 34.4955 83.2769 35.2362C82.3064 38.3617 81.0966 41.629 79.6725 44.979C78.6316 42.9949 77.5514 41.032 76.4325 39.0913ZM56.6217 19.707C58.8407 22.1223 61.0632 24.8186 63.2492 27.7443C58.8148 27.5339 54.3729 27.533 49.9384 27.7416C52.1266 24.8429 54.368 22.1501 56.6217 19.707ZM36.6838 39.1245C35.5789 41.0495 34.5188 43.0002 33.5045 44.975C32.1038 41.637 30.905 38.3546 29.9261 35.1849C33.1394 34.4628 36.5659 33.8723 40.1364 33.4242C38.9413 35.2967 37.7901 37.1972 36.6838 39.124V39.1245ZM40.2389 68.0067C36.5501 67.5931 33.072 67.0331 29.8597 66.3304C30.8539 63.1042 32.0791 59.752 33.5102 56.3424C34.5286 58.3186 35.593 60.2705 36.7028 62.1964C37.8439 64.1764 39.0256 66.1156 40.2389 68.0067ZM56.7546 81.7204C54.474 79.249 52.1996 76.5147 49.9784 73.574C52.1349 73.6588 54.3332 73.7021 56.5676 73.7021C58.8632 73.7021 61.1323 73.6504 63.3658 73.5505C61.1728 76.5443 58.9586 79.2826 56.7546 81.7204ZM79.7179 56.1682C81.2233 59.6154 82.492 62.9499 83.4995 66.1209C80.2343 66.8696 76.7088 67.4724 72.994 67.9201C74.1844 66.0244 75.3371 64.1051 76.4514 62.1633C77.5844 60.1895 78.6735 58.1907 79.7179 56.1682ZM72.284 59.7485C70.578 62.7256 68.7762 65.6462 66.8812 68.5057C63.4488 68.7499 60.0087 68.8712 56.5676 68.8694C53.0627 68.8694 49.6537 68.7598 46.371 68.5459C44.4266 65.693 42.5904 62.7673 40.8662 59.775H40.8667C39.1506 56.7985 37.5477 53.7576 36.0613 50.6589C37.5439 47.5595 39.1419 44.5171 40.8521 41.5384L40.8517 41.5388C42.5613 38.5593 44.3828 35.6461 46.3125 32.8055C49.6617 32.5509 53.0962 32.4183 56.5672 32.4183H56.5676C60.0545 32.4183 63.4934 32.5522 66.8417 32.8086C68.7518 35.6449 70.5618 38.5481 72.2681 41.5128C73.984 44.485 75.6032 47.5124 77.1232 50.5904C75.6188 53.6998 74.0048 56.7545 72.284 59.7485ZM82.2087 5.77588C85.9798 7.96088 87.4465 16.772 85.077 28.3268C84.9257 29.0639 84.7559 29.8148 84.5711 30.5763C79.8982 29.4926 74.8246 28.687 69.5125 28.1862C66.418 23.7592 63.2114 19.7344 59.9925 16.2501C60.8361 15.4331 61.6998 14.6374 62.5827 13.8636C70.8973 6.59481 78.6682 3.7248 82.2087 5.77588ZM56.5676 40.4406C62.1217 40.4406 66.6243 44.9639 66.6243 50.5435C66.6243 56.1232 62.1217 60.6465 56.5676 60.6465C51.0136 60.6465 46.5109 56.1232 46.5109 50.5435C46.5109 44.9639 51.0136 40.4406 56.5676 40.4406Z" fill="#00D8FF"/>
</g>
<defs>
<clipPath id="clip0_14_43">
<rect width="113" height="101" fill="white"/>
</clipPath>
</defs>
</svg>
