<svg width="196" height="60" viewBox="0 0 196 60" fill="none" xmlns="http://www.w3.org/2000/svg">
<path d="M25.2489 2.06531V8.56818C23.1273 8.56818 21.472 8.82436 20.283 9.33671C19.094 9.82933 18.5811 10.8245 18.7443 12.3221L19.8284 21.0418C20.1082 23.2488 19.8167 25.0323 18.9541 26.3919C18.1148 27.7516 16.8209 28.7961 15.0724 29.5252C13.3472 30.2346 11.3072 30.7371 8.95249 31.0325C11.4471 31.3478 13.557 31.8603 15.2822 32.5698C17.0074 33.279 18.2664 34.3037 19.059 35.6438C19.8517 36.9838 20.1082 38.777 19.8284 41.0235L18.7443 49.7432C18.5811 51.2408 19.094 52.2359 20.283 52.7286C21.472 53.2408 23.1273 53.4971 25.2489 53.4971V60C18.8142 60 14.2914 59.1722 11.6802 57.5171C9.09239 55.8814 8.04325 53.0735 8.53284 49.0928L9.58198 40.6391C9.76849 39.1416 9.46541 37.9691 8.67274 37.1217C7.90338 36.2743 6.76099 35.6832 5.2456 35.3481C3.7302 34.9936 1.98167 34.8162 0 34.8162V27.2491C1.95836 27.2491 3.69524 27.0815 5.21064 26.7466C6.72604 26.3919 7.88007 25.791 8.67274 24.9436C9.46541 24.0962 9.76849 22.9237 9.58198 21.4261L8.53284 13.0315C8.01995 8.97213 9.06906 6.13452 11.6802 4.51867C14.2914 2.88309 18.8142 2.06531 25.2489 2.06531Z" fill="url(#paint0_linear_212_306)"/>
<path d="M168.802 0C175.734 0 180.593 0.817785 183.381 2.45336C186.193 4.08893 187.336 6.90682 186.809 10.9071L185.679 19.3608C185.477 20.8584 185.804 22.0309 186.658 22.8783C187.512 23.7257 188.742 24.3266 190.349 24.6813C191.982 25.0162 193.865 25.1838 196 25.1838V32.7509C193.89 32.7509 192.02 32.9283 190.387 33.2828C188.755 33.6179 187.512 34.209 186.658 35.0564C185.804 35.9038 185.477 37.0762 185.679 38.5738L186.809 46.9685C187.386 51.0082 186.256 53.8458 183.418 55.4812C180.606 57.1169 175.734 57.9347 168.802 57.9347V51.4317C171.113 51.4317 172.908 51.1755 174.189 50.6632C175.47 50.1706 176.01 49.1755 175.809 47.6779L174.641 38.9582C174.34 36.7313 174.641 34.9479 175.545 33.6081C176.474 32.2482 177.881 31.2137 179.764 30.5044C181.648 29.7752 183.858 29.2629 186.394 28.9672C183.707 28.6519 181.422 28.1397 179.538 27.4302C177.68 26.7208 176.324 25.6963 175.47 24.3562C174.616 22.9966 174.34 21.2034 174.641 18.9765L175.809 10.2568C176.01 8.75916 175.457 7.76403 174.152 7.2714C172.871 6.75905 171.088 6.50288 168.802 6.50288V0Z" fill="url(#paint1_linear_212_306)"/>
<path d="M25.2646 38.0427V19.2845H37.0286V21.589H28.1051V27.5113H35.5012V29.7891H28.1051V38.0427H25.2646ZM41.3154 22.2322C40.7794 22.2322 40.3328 22.0714 39.9755 21.7498C39.6361 21.4104 39.4664 20.9906 39.4664 20.4903C39.4664 19.9901 39.6361 19.5792 39.9755 19.2577C40.3328 18.9182 40.7794 18.7485 41.3154 18.7485C41.8513 18.7485 42.289 18.9182 42.6285 19.2577C42.9858 19.5792 43.1644 19.9901 43.1644 20.4903C43.1644 20.9906 42.9858 21.4104 42.6285 21.7498C42.289 22.0714 41.8513 22.2322 41.3154 22.2322ZM39.8951 38.0427V24.7511H42.7357V38.0427H39.8951ZM46.4854 38.0427V18.7485H49.3259V38.0427H46.4854ZM54.5309 22.2322C53.995 22.2322 53.5484 22.0714 53.1911 21.7498C52.8516 21.4104 52.6819 20.9906 52.6819 20.4903C52.6819 19.9901 52.8516 19.5792 53.1911 19.2577C53.5484 18.9182 53.995 18.7485 54.5309 18.7485C55.0669 18.7485 55.5046 18.9182 55.844 19.2577C56.2013 19.5792 56.3799 19.9901 56.3799 20.4903C56.3799 20.9906 56.2013 21.4104 55.844 21.7498C55.5046 22.0714 55.0669 22.2322 54.5309 22.2322ZM53.1107 38.0427V24.7511H55.9512V38.0427H53.1107ZM59.7009 43.9381V24.7511H62.2467L62.5415 26.8145C62.9702 26.1893 63.5598 25.6355 64.3101 25.1531C65.0604 24.6707 66.0251 24.4296 67.2042 24.4296C68.4905 24.4296 69.6249 24.7333 70.6075 25.3407C71.5901 25.9481 72.3583 26.7788 72.9121 27.8328C73.4838 28.8869 73.7696 30.0838 73.7696 31.4237C73.7696 32.7636 73.4838 33.9605 72.9121 35.0146C72.3583 36.0507 71.5901 36.8725 70.6075 37.4799C69.6249 38.0695 68.4816 38.3642 67.1774 38.3642C66.1413 38.3642 65.2212 38.1588 64.4173 37.7479C63.6312 37.337 63.006 36.7564 62.5415 36.0061V43.9381H59.7009ZM66.6951 35.8989C67.9099 35.8989 68.9103 35.488 69.6964 34.6662C70.4824 33.8265 70.8755 32.7368 70.8755 31.3969C70.8755 30.5215 70.6968 29.7444 70.3395 29.0655C69.9822 28.3867 69.4909 27.8596 68.8657 27.4845C68.2404 27.0914 67.5169 26.8949 66.6951 26.8949C65.4803 26.8949 64.4798 27.3148 63.6938 28.1544C62.9256 28.9941 62.5415 30.0749 62.5415 31.3969C62.5415 32.7368 62.9256 33.8265 63.6938 34.6662C64.4798 35.488 65.4803 35.8989 66.6951 35.8989ZM76.8419 43.9381V24.7511H79.3876L79.6824 26.8145C80.1112 26.1893 80.7007 25.6355 81.451 25.1531C82.2014 24.6707 83.1661 24.4296 84.3452 24.4296C85.6314 24.4296 86.7659 24.7333 87.7484 25.3407C88.731 25.9481 89.4992 26.7788 90.053 27.8328C90.6247 28.8869 90.9105 30.0838 90.9105 31.4237C90.9105 32.7636 90.6247 33.9605 90.053 35.0146C89.4992 36.0507 88.731 36.8725 87.7484 37.4799C86.7659 38.0695 85.6225 38.3642 84.3184 38.3642C83.2822 38.3642 82.3621 38.1588 81.5582 37.7479C80.7722 37.337 80.1469 36.7564 79.6824 36.0061V43.9381H76.8419ZM83.836 35.8989C85.0508 35.8989 86.0513 35.488 86.8373 34.6662C87.6234 33.8265 88.0164 32.7368 88.0164 31.3969C88.0164 30.5215 87.8378 29.7444 87.4805 29.0655C87.1232 28.3867 86.6319 27.8596 86.0066 27.4845C85.3813 27.0914 84.6578 26.8949 83.836 26.8949C82.6212 26.8949 81.6207 27.3148 80.8347 28.1544C80.0665 28.9941 79.6824 30.0749 79.6824 31.3969C79.6824 32.7368 80.0665 33.8265 80.8347 34.6662C81.6207 35.488 82.6212 35.8989 83.836 35.8989ZM100.2 38.3642C98.9314 38.3642 97.788 38.0784 96.7697 37.5067C95.7693 36.9172 94.9743 36.1043 94.3848 35.0681C93.7952 34.0141 93.5005 32.7904 93.5005 31.3969C93.5005 30.0034 93.7952 28.7886 94.3848 27.7525C94.9922 26.6984 95.805 25.8856 96.8233 25.3139C97.8416 24.7243 98.9761 24.4296 100.227 24.4296C101.495 24.4296 102.629 24.7243 103.63 25.3139C104.648 25.8856 105.452 26.6984 106.042 27.7525C106.649 28.7886 106.953 30.0034 106.953 31.3969C106.953 32.7904 106.649 34.0141 106.042 35.0681C105.452 36.1043 104.648 36.9172 103.63 37.5067C102.612 38.0784 101.468 38.3642 100.2 38.3642ZM100.2 35.9257C100.879 35.9257 101.504 35.7559 102.076 35.4165C102.665 35.0771 103.139 34.5769 103.496 33.9159C103.853 33.237 104.032 32.3973 104.032 31.3969C104.032 30.3965 103.853 29.5657 103.496 28.9047C103.156 28.2259 102.692 27.7167 102.102 27.3773C101.531 27.0379 100.905 26.8681 100.227 26.8681C99.5477 26.8681 98.9135 27.0379 98.324 27.3773C97.7523 27.7167 97.2878 28.2259 96.9305 28.9047C96.5732 29.5657 96.3946 30.3965 96.3946 31.3969C96.3946 32.3973 96.5732 33.237 96.9305 33.9159C97.2878 34.5769 97.7523 35.0771 98.324 35.4165C98.8957 35.7559 99.5209 35.9257 100.2 35.9257ZM113.069 38.0427L108.085 24.7511H111.059L114.757 35.3361L118.455 24.7511H121.403L116.446 38.0427H113.069ZM128.441 38.3642C126.762 38.3642 125.378 37.9533 124.288 37.1316C123.198 36.3098 122.573 35.22 122.412 33.8623H125.279C125.422 34.4697 125.762 34.9967 126.298 35.4433C126.834 35.8721 127.539 36.0865 128.415 36.0865C129.272 36.0865 129.897 35.9078 130.29 35.5505C130.683 35.1932 130.88 34.7823 130.88 34.3178C130.88 33.639 130.603 33.1834 130.049 32.9512C129.513 32.701 128.763 32.4777 127.798 32.2812C127.048 32.1204 126.298 31.9061 125.547 31.6381C124.815 31.3701 124.198 30.9949 123.698 30.5126C123.216 30.0124 122.975 29.3424 122.975 28.5028C122.975 27.3416 123.421 26.3769 124.315 25.6087C125.208 24.8226 126.458 24.4296 128.066 24.4296C129.549 24.4296 130.746 24.7869 131.657 25.5015C132.586 26.2161 133.131 27.2254 133.292 28.5296H130.558C130.469 27.9579 130.201 27.5113 129.754 27.1897C129.326 26.8681 128.745 26.7074 128.013 26.7074C127.298 26.7074 126.744 26.8592 126.351 27.1629C125.958 27.4487 125.762 27.8239 125.762 28.2884C125.762 28.7529 126.03 29.1191 126.566 29.3871C127.119 29.6551 127.843 29.8962 128.736 30.1106C129.629 30.3071 130.451 30.5394 131.201 30.8074C131.97 31.0575 132.586 31.4326 133.051 31.9329C133.515 32.4331 133.747 33.1655 133.747 34.1302C133.765 35.3451 133.292 36.3544 132.327 37.1583C131.38 37.9623 130.085 38.3642 128.441 38.3642ZM136.848 38.0427V18.7485H139.689V30.2446L144.78 24.7511H148.184L142.529 30.7806L149.014 38.0427H145.423L139.689 31.2361V38.0427H136.848ZM152.823 22.2322C152.287 22.2322 151.84 22.0714 151.483 21.7498C151.144 21.4104 150.974 20.9906 150.974 20.4903C150.974 19.9901 151.144 19.5792 151.483 19.2577C151.84 18.9182 152.287 18.7485 152.823 18.7485C153.359 18.7485 153.797 18.9182 154.136 19.2577C154.493 19.5792 154.672 19.9901 154.672 20.4903C154.672 20.9906 154.493 21.4104 154.136 21.7498C153.797 22.0714 153.359 22.2322 152.823 22.2322ZM151.403 38.0427V24.7511H154.243V38.0427H151.403ZM159.547 43.9381L162.736 36.944H161.959L156.707 24.7511H159.788L163.862 34.5858L168.122 24.7511H171.124L162.549 43.9381H159.547Z" fill="url(#paint2_linear_212_306)"/>
<defs>
<linearGradient id="paint0_linear_212_306" x1="-4.12178" y1="64.4599" x2="192.213" y2="-17.7644" gradientUnits="userSpaceOnUse">
<stop stop-color="#00C0FD"/>
<stop offset="1" stop-color="#E70FAA"/>
</linearGradient>
<linearGradient id="paint1_linear_212_306" x1="-18.5178" y1="62.3946" x2="188.029" y2="-30.7828" gradientUnits="userSpaceOnUse">
<stop stop-color="#00C0FD"/>
<stop offset="1" stop-color="#E70FAA"/>
</linearGradient>
<linearGradient id="paint2_linear_212_306" x1="45.6397" y1="44.6434" x2="151.287" y2="36.3171" gradientUnits="userSpaceOnUse">
<stop stop-color="#13B0F5"/>
<stop offset="1" stop-color="#CA24B4"/>
</linearGradient>
</defs>
</svg>
